<svg width="500" height="120" viewBox="0 0 500 120" fill="none" xmlns="http://www.w3.org/2000/svg">
<g clip-path="url(#clip0_50_36)">
<rect width="500" height="120" rx="14" fill="#369EC7"/>
<path d="M470.302 33.8356L456.702 97.9691C455.676 102.496 453.001 103.622 449.199 101.49L428.478 86.2207L418.48 95.8367C417.373 96.9432 416.448 97.8686 414.315 97.8686L415.804 76.7656L454.208 42.0635C455.878 40.5748 453.846 39.75 451.613 41.2387L404.136 71.1328L383.697 64.7356C379.251 63.3475 379.171 60.2897 384.622 58.1572L464.568 27.3578C468.27 25.9697 471.509 28.1826 470.302 33.8356Z" fill="white"/>
<path d="M74.848 44.904H59.104L52.768 81H41.184L47.52 44.904H31.712L33.504 34.92H76.64L74.848 44.904ZM86.8985 81.896C78.0238 81.896 73.5865 78.824 73.5865 72.68C73.5865 71.8267 73.6718 70.9093 73.8425 69.928L75.1865 61.992C75.9118 57.896 77.7892 54.76 80.8185 52.584C83.8905 50.3653 87.9438 49.256 92.9785 49.256C101.555 49.256 105.843 52.4987 105.843 58.984C105.843 59.9227 105.757 60.9467 105.587 62.056L104.819 66.6H85.2985L85.0425 68.072C84.9572 68.584 84.9145 69.0533 84.9145 69.48C84.9145 71.8267 86.3012 73 89.0745 73C90.0985 73 90.9732 72.68 91.6985 72.04C92.4238 71.4 92.8505 70.6533 92.9785 69.8L103.603 69.928C102.195 77.9067 96.6265 81.896 86.8985 81.896ZM94.5785 62.696C94.7492 61.9707 94.8345 61.3093 94.8345 60.712C94.8345 60.072 94.5572 59.432 94.0025 58.792C93.4478 58.152 92.5518 57.832 91.3145 57.832C90.1198 57.832 89.0105 58.2373 87.9865 59.048C87.0052 59.8587 86.3225 61.0747 85.9385 62.696H94.5785ZM121.187 71.144C121.187 72.2533 121.742 72.808 122.851 72.808C124.003 72.808 124.963 72.5947 125.731 72.168L125.411 79.4C123.363 81.064 121.059 81.896 118.499 81.896C114.616 81.896 112.099 81 110.947 79.208C110.222 78.056 109.859 76.7973 109.859 75.432C109.859 74.0667 109.944 72.872 110.115 71.848L117.091 32.424H127.971L121.251 70.376C121.208 70.632 121.187 70.888 121.187 71.144ZM142.649 81.896C133.774 81.896 129.337 78.824 129.337 72.68C129.337 71.8267 129.422 70.9093 129.593 69.928L130.937 61.992C131.662 57.896 133.539 54.76 136.569 52.584C139.641 50.3653 143.694 49.256 148.729 49.256C157.305 49.256 161.593 52.4987 161.593 58.984C161.593 59.9227 161.507 60.9467 161.337 62.056L160.569 66.6H141.049L140.793 68.072C140.707 68.584 140.665 69.0533 140.665 69.48C140.665 71.8267 142.051 73 144.825 73C145.849 73 146.723 72.68 147.449 72.04C148.174 71.4 148.601 70.6533 148.729 69.8L159.353 69.928C157.945 77.9067 152.377 81.896 142.649 81.896ZM150.329 62.696C150.499 61.9707 150.585 61.3093 150.585 60.712C150.585 60.072 150.307 59.432 149.753 58.792C149.198 58.152 148.302 57.832 147.065 57.832C145.87 57.832 144.761 58.2373 143.737 59.048C142.755 59.8587 142.073 61.0747 141.689 62.696H150.329ZM193.193 82.024C192.254 87.4427 190.1 91.7307 186.729 94.888C183.401 98.0453 179.582 99.624 175.273 99.624C170.964 99.624 167.849 98.8347 165.929 97.256C164.052 95.6773 163.113 93.608 163.113 91.048C163.113 87.2933 165.502 84.0293 170.281 81.256C166.654 80.104 164.841 77.352 164.841 73C164.841 71.9333 164.948 70.76 165.161 69.48L166.441 61.992C167.124 58.152 168.702 55.1013 171.177 52.84C173.652 50.536 176.852 49.384 180.777 49.384C184.745 49.384 187.454 50.344 188.905 52.264L189.289 50.216H198.825L193.193 82.024ZM176.297 68.072C176.212 68.456 176.169 68.9893 176.169 69.672C176.169 70.3547 176.489 71.0373 177.129 71.72C177.769 72.36 178.836 72.68 180.329 72.68C181.865 72.68 183.188 72.0827 184.297 70.888L186.217 60.136C185.62 59.0693 184.489 58.536 182.825 58.536C181.161 58.536 179.86 58.9627 178.921 59.816C177.982 60.6693 177.385 61.8213 177.129 63.272L176.297 68.072ZM176.745 90.472C179.518 90.472 181.332 87.9547 182.185 82.92L182.825 79.208C176.894 81.9813 173.929 84.776 173.929 87.592C173.929 88.4453 174.164 89.128 174.633 89.64C175.145 90.1947 175.849 90.472 176.745 90.472ZM231.698 56.744C231.698 58.1947 231.442 59.6027 230.93 60.968C230.461 62.3333 229.991 63.336 229.522 63.976L228.818 64.872H219.154C220.221 63.8907 220.754 62.6747 220.754 61.224C220.754 60.456 220.498 59.8373 219.986 59.368C219.517 58.856 218.855 58.6 218.002 58.6C216.551 58.6 215.293 59.3253 214.226 60.776L210.642 81H199.762L205.202 50.216H215.314L214.546 54.504C216.978 51.048 219.922 49.32 223.378 49.32C226.151 49.32 228.221 49.9813 229.586 51.304C230.994 52.6267 231.698 54.44 231.698 56.744ZM263.549 71.144C263.549 72.2533 264.104 72.808 265.213 72.808C266.365 72.808 267.325 72.5947 268.093 72.168L267.773 79.4C265.725 81.064 263.421 81.896 260.861 81.896C256.168 81.896 253.565 80.1893 253.053 76.776C250.92 80.1893 247.784 81.896 243.645 81.896C236.648 81.896 233.149 78.888 233.149 72.872C233.149 71.848 233.256 70.7173 233.469 69.48L234.813 61.992C235.496 58.152 237.053 55.1013 239.485 52.84C241.96 50.536 245.16 49.384 249.085 49.384C253.053 49.384 255.741 50.3013 257.149 52.136L257.469 50.216H267.197L263.613 70.376C263.57 70.632 263.549 70.888 263.549 71.144ZM244.605 68.072C244.52 68.456 244.477 68.9893 244.477 69.672C244.477 70.3547 244.797 71.0373 245.437 71.72C246.077 72.36 247.144 72.68 248.637 72.68C250.173 72.68 251.496 72.0827 252.605 70.888L254.525 60.136C254.056 59.0693 252.946 58.536 251.197 58.536C247.912 58.536 245.992 60.1147 245.437 63.272L244.605 68.072ZM325.025 72.808C326.006 72.808 326.881 72.5947 327.649 72.168L327.329 79.4C325.324 81.064 323.041 81.896 320.481 81.896C314.678 81.896 311.777 79.464 311.777 74.6C311.777 73.7467 311.862 72.8293 312.033 71.848L313.377 63.976C313.505 63.208 313.569 62.44 313.569 61.672C313.569 59.624 312.438 58.6 310.177 58.6C307.958 58.6 306.209 59.4747 304.929 61.224L301.473 81H290.593L293.601 63.976C293.729 63.208 293.793 62.44 293.793 61.672C293.793 59.624 292.641 58.6 290.337 58.6C288.502 58.6 286.924 59.304 285.601 60.712L282.017 81H271.137L276.577 50.216H286.689L285.985 54.056C288.545 50.8987 291.788 49.32 295.713 49.32C301.26 49.32 304.417 51.1547 305.185 54.824C307.745 51.1547 311.158 49.32 315.425 49.32C319.734 49.32 322.529 50.28 323.809 52.2C324.662 53.5227 325.089 54.9733 325.089 56.552C325.089 58.1307 324.982 59.56 324.769 60.84L323.169 70.376C323.126 70.632 323.105 70.8667 323.105 71.08C323.105 72.232 323.745 72.808 325.025 72.808Z" fill="white"/>
</g>
<defs>
<clipPath id="clip0_50_36">
<rect width="500" height="120" rx="14" fill="white"/>
</clipPath>
</defs>
</svg>
