<svg width="400" height="260" viewBox="0 0 400 260" fill="none" xmlns="http://www.w3.org/2000/svg">
<rect width="400" height="260" rx="44" fill="white"/>
<path d="M175.967 185.481H147.371L165.257 74.0204H193.851L175.967 185.481Z" fill="#00579F"/>
<path d="M279.627 76.7453C273.987 74.4901 265.041 72 253.979 72C225.74 72 205.854 87.1768 205.732 108.875C205.497 124.884 219.97 133.776 230.794 139.114C241.857 144.568 245.618 148.128 245.618 152.99C245.505 160.457 236.678 163.899 228.445 163.899C217.028 163.899 210.911 162.125 201.615 157.97L197.849 156.19L193.848 181.21C200.554 184.29 212.911 187.022 225.74 187.142C255.744 187.142 275.278 172.2 275.51 149.077C275.624 136.389 267.982 126.666 251.507 118.722C241.505 113.622 235.38 110.183 235.38 104.965C235.497 100.221 240.561 95.3625 251.851 95.3625C261.147 95.1245 267.977 97.3766 273.152 99.6303L275.738 100.814L279.627 76.7453Z" fill="#00579F"/>
<path d="M317.633 145.994C319.988 139.591 329.05 114.809 329.05 114.809C328.931 115.047 331.4 108.287 332.812 104.138L334.81 113.742C334.81 113.742 340.225 140.422 341.401 145.994C336.932 145.994 323.281 145.994 317.633 145.994ZM352.931 74.0204H330.812C323.991 74.0204 318.809 76.0346 315.866 83.2684L273.391 185.479H303.395C303.395 185.479 308.335 171.723 309.397 168.76C312.688 168.76 341.877 168.76 346.111 168.76C346.932 172.673 349.523 185.479 349.523 185.479H376L352.931 74.0204Z" fill="#00579F"/>
<path d="M123.487 74.0204L95.4823 150.026L92.4221 134.611C87.2447 116.824 71.0071 97.4996 52.8867 87.8908L78.5379 185.363H108.777L153.724 74.0204H123.487Z" fill="#00579F"/>
<path d="M69.4783 74.0204H23.4707L23 76.2725C58.8888 85.522 82.6573 107.818 92.4227 134.616L82.4212 83.3897C80.7746 76.271 75.7144 74.2553 69.4783 74.0204Z" fill="#FAA61A"/>
</svg>
